<svg width="1200" height="1800" viewBox="0 0 1200 1800" fill="none" xmlns="http://www.w3.org/2000/svg">
  <rect width="1200" height="1800" fill="#EFE6D8"/>
  <rect width="1200" height="260" fill="#8A5A2B"/>
  <rect y="1460" width="1200" height="340" fill="#202E37"/>
  <rect x="120" y="340" width="960" height="980" rx="24" fill="#FBF6EE" stroke="#D0BEA7" stroke-width="10"/>
  <path d="M600 560C684 560 752 628 752 712C752 769 721 819 675 845C722 863 760 908 760 968C760 1051 692 1119 609 1119H591C508 1119 440 1051 440 968C440 908 478 863 525 845C479 819 448 769 448 712C448 628 516 560 600 560Z" fill="#8A5A2B"/>
  <rect x="563" y="618" width="74" height="360" rx="37" fill="#202E37"/>
  <circle cx="520" cy="712" r="34" fill="#D88A40"/>
  <circle cx="680" cy="712" r="34" fill="#D88A40"/>
  <text x="600" y="145" text-anchor="middle" fill="#FBF6EE" font-family="Georgia, serif" font-size="66" letter-spacing="2">NASSIM NICHOLAS TALEB</text>
  <text x="600" y="1240" text-anchor="middle" fill="#202E37" font-family="Georgia, serif" font-size="132" font-weight="700">ANTIFRAGILE</text>
  <text x="600" y="1568" text-anchor="middle" fill="#FBF6EE" font-family="Arial, sans-serif" font-size="31" letter-spacing="4">OPTIONALITY  RISK  EXPOSURE  VARIABILITY</text>
</svg>
