<svg width="1200" height="1800" viewBox="0 0 1200 1800" fill="none" xmlns="http://www.w3.org/2000/svg">
  <rect width="1200" height="1800" fill="#F6EFE9"/>
  <rect x="72" y="72" width="1056" height="1656" rx="32" fill="#FFFDFC" stroke="#20323E" stroke-width="8"/>
  <rect x="132" y="132" width="936" height="360" rx="28" fill="#20323E"/>
  <circle cx="460" cy="340" r="124" fill="#E08B52"/>
  <circle cx="740" cy="340" r="124" fill="#6E9CB2"/>
  <circle cx="600" cy="340" r="96" fill="#FFFDFC"/>
  <path d="M468 796C468 708 540 636 628 636C716 636 788 708 788 796C788 884 716 956 628 956C540 956 468 884 468 796Z" stroke="#20323E" stroke-width="26"/>
  <path d="M412 996C412 908 484 836 572 836" stroke="#E08B52" stroke-width="26" stroke-linecap="round"/>
  <path d="M732 996C732 908 660 836 572 836" stroke="#6E9CB2" stroke-width="26" stroke-linecap="round"/>
  <path d="M360 1118C360 1004 452 912 566 912" stroke="#E08B52" stroke-width="30" stroke-linecap="round"/>
  <path d="M840 1118C840 1004 748 912 634 912" stroke="#6E9CB2" stroke-width="30" stroke-linecap="round"/>
  <path d="M300 1238C300 1116 394 1020 516 1020" stroke="#E08B52" stroke-width="30" stroke-linecap="round"/>
  <path d="M900 1238C900 1116 806 1020 684 1020" stroke="#6E9CB2" stroke-width="30" stroke-linecap="round"/>
  <text x="132" y="1480" fill="#20323E" font-family="Georgia, 'Times New Roman', serif" font-size="162" font-weight="700">Attached</text>
  <text x="136" y="1588" fill="#E08B52" font-family="Arial, Helvetica, sans-serif" font-size="38" letter-spacing="4">AMIR LEVINE  RACHEL HELLER</text>
</svg>
