<svg width="1200" height="1800" viewBox="0 0 1200 1800" fill="none" xmlns="http://www.w3.org/2000/svg">
  <rect width="1200" height="1800" fill="#EAF0EE"/>
  <rect width="1200" height="260" fill="#0E6A8B"/>
  <rect y="1460" width="1200" height="340" fill="#20313C"/>
  <rect x="120" y="340" width="960" height="980" rx="24" fill="#F9FCFB" stroke="#C3D5D2" stroke-width="10"/>
  <path d="M220 930C320 760 420 860 520 720C620 580 720 840 820 680C900 552 960 612 1020 540V1030H220V930Z" fill="#0E6A8B"/>
  <path d="M220 1030C310 930 420 990 520 900C620 810 730 980 830 890C900 828 960 854 1020 810V1110H220V1030Z" fill="#3AA1C0"/>
  <circle cx="360" cy="650" r="18" fill="#D88D43"/>
  <circle cx="600" cy="590" r="18" fill="#D88D43"/>
  <circle cx="820" cy="520" r="18" fill="#D88D43"/>
  <text x="600" y="132" text-anchor="middle" fill="#F9FCFB" font-family="Georgia, serif" font-size="60" letter-spacing="2">W. CHAN KIM  RENEE MAUBORGNE</text>
  <text x="600" y="1235" text-anchor="middle" fill="#20313C" font-family="Georgia, serif" font-size="108">BLUE OCEAN</text>
  <text x="600" y="1368" text-anchor="middle" fill="#20313C" font-family="Georgia, serif" font-size="134" font-weight="700">STRATEGY</text>
  <text x="600" y="1568" text-anchor="middle" fill="#F9FCFB" font-family="Arial, sans-serif" font-size="32" letter-spacing="4">MARKET CREATION  DIFFERENTIATION  EXECUTION</text>
</svg>
