<svg width="1200" height="1800" viewBox="0 0 1200 1800" fill="none" xmlns="http://www.w3.org/2000/svg">
  <rect width="1200" height="1800" fill="#EFE7DC"/>
  <rect width="1200" height="260" fill="#C9672F"/>
  <rect y="1460" width="1200" height="340" fill="#262D35"/>
  <rect x="120" y="340" width="960" height="980" rx="24" fill="#FBF6EE" stroke="#D3C0A7" stroke-width="10"/>
  <path d="M520 610C520 560 560 520 610 520H700V700C700 744 664 780 620 780H520V610Z" fill="#262D35"/>
  <path d="M500 770H708C758 770 798 810 798 860V910C798 960 758 1000 708 1000H500V770Z" fill="#C9672F"/>
  <rect x="450" y="700" width="120" height="180" rx="24" fill="#262D35"/>
  <rect x="420" y="860" width="110" height="180" rx="24" fill="#262D35"/>
  <text x="600" y="150" text-anchor="middle" fill="#FBF6EE" font-family="Georgia, serif" font-size="86" letter-spacing="4">DAVID GOGGINS</text>
  <text x="600" y="1230" text-anchor="middle" fill="#262D35" font-family="Georgia, serif" font-size="92">CAN'T HURT</text>
  <text x="600" y="1360" text-anchor="middle" fill="#262D35" font-family="Georgia, serif" font-size="132" font-weight="700">ME</text>
  <text x="600" y="1568" text-anchor="middle" fill="#FBF6EE" font-family="Arial, sans-serif" font-size="38" letter-spacing="4">DISCIPLINE  RESILIENCE  TRUTH  GRIT</text>
</svg>
