<svg width="1200" height="1800" viewBox="0 0 1200 1800" fill="none" xmlns="http://www.w3.org/2000/svg">
  <rect width="1200" height="1800" fill="#E9E2D2"/>
  <rect x="0" y="0" width="1200" height="240" fill="#1D3550"/>
  <rect x="0" y="1470" width="1200" height="330" fill="#1D3550"/>
  <circle cx="600" cy="810" r="290" fill="#3B82A0"/>
  <path d="M250 875C340 810 430 785 520 800C610 815 700 790 790 725C860 675 920 660 970 675" stroke="#E9E2D2" stroke-width="26" stroke-linecap="round"/>
  <path d="M220 980C320 905 425 875 535 890C660 908 765 875 860 805C930 753 988 742 1030 755" stroke="#E9E2D2" stroke-width="20" stroke-linecap="round" opacity="0.85"/>
  <path d="M285 730C360 675 438 655 515 670C600 688 678 665 760 610C820 570 875 557 920 567" stroke="#E9E2D2" stroke-width="18" stroke-linecap="round" opacity="0.72"/>
  <text x="600" y="150" text-anchor="middle" fill="#F7F2EA" font-family="Georgia, serif" font-size="68" font-weight="700">CAL NEWPORT</text>
  <text x="600" y="1325" text-anchor="middle" fill="#1D3550" font-family="Georgia, serif" font-size="126" font-weight="700">DEEP WORK</text>
  <text x="600" y="1595" text-anchor="middle" fill="#F7F2EA" font-family="Georgia, serif" font-size="42">Focus   Depth   Value</text>
  <text x="600" y="1670" text-anchor="middle" fill="#F7F2EA" font-family="Georgia, serif" font-size="34">A modern learning edition for concentration and meaningful output</text>
</svg>
