<svg width="1200" height="1800" viewBox="0 0 1200 1800" fill="none" xmlns="http://www.w3.org/2000/svg">
  <rect width="1200" height="1800" fill="#F6E3C8"/>
  <rect x="0" y="0" width="1200" height="230" fill="#8B2E2E"/>
  <rect x="0" y="1440" width="1200" height="360" fill="#8B2E2E"/>
  <rect x="110" y="310" width="980" height="980" rx="28" fill="#F0D4A9" stroke="#5C2C1A" stroke-width="12"/>
  <circle cx="600" cy="790" r="250" fill="#D9B382" stroke="#5C2C1A" stroke-width="10"/>
  <path d="M470 760C520 700 570 690 620 725C665 756 715 758 760 718" stroke="#5C2C1A" stroke-width="18" stroke-linecap="round"/>
  <path d="M485 865C530 815 585 805 650 835C700 858 747 850 790 815" stroke="#5C2C1A" stroke-width="18" stroke-linecap="round"/>
  <path d="M440 665C490 630 545 622 602 640C660 658 716 650 768 612" stroke="#5C2C1A" stroke-width="16" stroke-linecap="round"/>
  <text x="600" y="145" text-anchor="middle" fill="#F6E3C8" font-family="Georgia, serif" font-size="76" font-weight="700">COMMUNICATION CLASSIC</text>
  <text x="600" y="1280" text-anchor="middle" fill="#5C2C1A" font-family="Georgia, serif" font-size="122" font-weight="700">DIFFICULT</text>
  <text x="600" y="1408" text-anchor="middle" fill="#5C2C1A" font-family="Georgia, serif" font-size="122" font-weight="700">CONVERSATIONS</text>
  <text x="600" y="1615" text-anchor="middle" fill="#F6E3C8" font-family="Georgia, serif" font-size="72">STONE   PATTON   HEEN</text>
  <text x="600" y="1708" text-anchor="middle" fill="#F6E3C8" font-family="Georgia, serif" font-size="36">A modern learning edition for high stakes communication</text>
</svg>
