<svg width="1200" height="1800" viewBox="0 0 1200 1800" fill="none" xmlns="http://www.w3.org/2000/svg">
  <rect width="1200" height="1800" fill="#F3EBDD"/>
  <rect x="72" y="72" width="1056" height="1656" rx="32" fill="#FFF9EF" stroke="#1A2A3A" stroke-width="8"/>
  <rect x="132" y="132" width="936" height="396" rx="24" fill="#1A2A3A"/>
  <circle cx="600" cy="330" r="134" fill="#F2A23A"/>
  <circle cx="600" cy="330" r="76" fill="#FFF9EF"/>
  <path d="M600 218L620 266L672 272L632 306L644 358L600 330L556 358L568 306L528 272L580 266L600 218Z" fill="#1A2A3A"/>
  <path d="M600 612C762 612 894 744 894 906C894 1068 762 1200 600 1200C438 1200 306 1068 306 906C306 744 438 612 600 612ZM600 696C484 696 390 790 390 906C390 1022 484 1116 600 1116C716 1116 810 1022 810 906C810 790 716 696 600 696Z" fill="#1A2A3A"/>
  <circle cx="600" cy="906" r="132" fill="#2E6F95"/>
  <circle cx="600" cy="906" r="44" fill="#FFF9EF"/>
  <path d="M600 686V616" stroke="#F2A23A" stroke-width="26" stroke-linecap="round"/>
  <path d="M600 1196V1126" stroke="#F2A23A" stroke-width="26" stroke-linecap="round"/>
  <path d="M380 906H310" stroke="#F2A23A" stroke-width="26" stroke-linecap="round"/>
  <path d="M890 906H820" stroke="#F2A23A" stroke-width="26" stroke-linecap="round"/>
  <path d="M444 750L394 700" stroke="#F2A23A" stroke-width="26" stroke-linecap="round"/>
  <path d="M806 1112L756 1062" stroke="#F2A23A" stroke-width="26" stroke-linecap="round"/>
  <path d="M756 750L806 700" stroke="#F2A23A" stroke-width="26" stroke-linecap="round"/>
  <path d="M394 1112L444 1062" stroke="#F2A23A" stroke-width="26" stroke-linecap="round"/>
  <text x="132" y="1388" fill="#1A2A3A" font-family="Georgia, 'Times New Roman', serif" font-size="150" font-weight="700">Drive</text>
  <text x="136" y="1498" fill="#2E6F95" font-family="Arial, Helvetica, sans-serif" font-size="52" letter-spacing="10">DANIEL H. PINK</text>
  <text x="136" y="1602" fill="#5C5C5C" font-family="Arial, Helvetica, sans-serif" font-size="38" letter-spacing="4">Autonomy  Mastery  Purpose</text>
</svg>
