<svg width="1200" height="1800" viewBox="0 0 1200 1800" fill="none" xmlns="http://www.w3.org/2000/svg">
  <rect width="1200" height="1800" fill="#EEE6D8"/>
  <rect width="1200" height="260" fill="#B65A32"/>
  <rect y="1460" width="1200" height="340" fill="#263238"/>
  <rect x="120" y="340" width="960" height="980" rx="24" fill="#FAF5EC" stroke="#CCB99B" stroke-width="10"/>
  <path d="M600 610L760 710V930C760 1038 687 1130 600 1160C513 1130 440 1038 440 930V710L600 610Z" fill="#263238"/>
  <path d="M600 690L692 748V920C692 984 652 1042 600 1068C548 1042 508 984 508 920V748L600 690Z" fill="#B65A32"/>
  <path d="M600 790L624 862H700L638 906L662 978L600 934L538 978L562 906L500 862H576L600 790Z" fill="#F6E7C9"/>
  <text x="600" y="150" text-anchor="middle" fill="#FAF5EC" font-family="Georgia, serif" font-size="74" letter-spacing="3">JOCKO WILLINK  LEIF BABIN</text>
  <text x="600" y="1230" text-anchor="middle" fill="#263238" font-family="Georgia, serif" font-size="104" font-weight="700">EXTREME</text>
  <text x="600" y="1344" text-anchor="middle" fill="#263238" font-family="Georgia, serif" font-size="104" font-weight="700">OWNERSHIP</text>
  <text x="600" y="1568" text-anchor="middle" fill="#FAF5EC" font-family="Arial, sans-serif" font-size="38" letter-spacing="4">LEADERSHIP  DISCIPLINE  EXECUTION  ACCOUNTABILITY</text>
</svg>
