<svg width="1200" height="1800" viewBox="0 0 1200 1800" fill="none" xmlns="http://www.w3.org/2000/svg">
  <rect width="1200" height="1800" fill="#121212"/>
  <rect x="84" y="84" width="1032" height="1632" rx="48" fill="#18181B" stroke="#3F3F46" stroke-width="8"/>
  <rect x="84" y="84" width="1032" height="214" rx="48" fill="#F59E0B"/>
  <text x="600" y="194" text-anchor="middle" fill="#FFFBEB" font-family="Georgia, serif" font-size="82" letter-spacing="8">ERIC BERNE</text>

  <rect x="278" y="386" width="644" height="644" rx="40" fill="#0F172A" stroke="#64748B" stroke-width="6"/>
  <rect x="338" y="446" width="524" height="524" rx="24" fill="#F8FAFC"/>
  <rect x="338" y="446" width="262" height="262" fill="#111827"/>
  <rect x="600" y="708" width="262" height="262" fill="#111827"/>
  <circle cx="470" cy="578" r="62" fill="#FBBF24"/>
  <circle cx="730" cy="838" r="62" fill="#FBBF24"/>
  <path d="M712 560C748 520 804 512 848 542" stroke="#FCA5A5" stroke-width="16" stroke-linecap="round"/>
  <path d="M354 826C400 782 470 780 520 818" stroke="#93C5FD" stroke-width="16" stroke-linecap="round"/>

  <text x="600" y="1156" text-anchor="middle" fill="#F8FAFC" font-family="Georgia, serif" font-size="118" letter-spacing="6">GAMES PEOPLE</text>
  <text x="600" y="1270" text-anchor="middle" fill="#F8FAFC" font-family="Georgia, serif" font-size="132" letter-spacing="6">PLAY</text>
  <text x="600" y="1372" text-anchor="middle" fill="#FCD34D" font-family="Arial, sans-serif" font-size="38" letter-spacing="4">TRANSACTIONAL ANALYSIS • SCRIPTS • AUTONOMY</text>

  <rect x="176" y="1424" width="848" height="202" rx="26" fill="#1F1F23" stroke="#3F3F46" stroke-width="4"/>
  <text x="600" y="1498" text-anchor="middle" fill="#E5E7EB" font-family="Arial, sans-serif" font-size="40" letter-spacing="4">READ THE PATTERN UNDER THE TALK</text>
  <text x="600" y="1562" text-anchor="middle" fill="#D4D4D8" font-family="Arial, sans-serif" font-size="34">A modern learning edition on repeated social games,</text>
  <text x="600" y="1608" text-anchor="middle" fill="#D4D4D8" font-family="Arial, sans-serif" font-size="34">hidden payoffs, and what autonomy actually requires.</text>
</svg>
