<svg width="1200" height="1800" viewBox="0 0 1200 1800" fill="none" xmlns="http://www.w3.org/2000/svg">
  <rect width="1200" height="1800" fill="#F4EFE7"/>
  <rect x="72" y="72" width="1056" height="1656" rx="32" fill="#FFF9F1" stroke="#20303C" stroke-width="8"/>
  <rect x="132" y="132" width="936" height="380" rx="28" fill="#20303C"/>
  <circle cx="600" cy="262" r="70" fill="#F0B44D"/>
  <path d="M268 1088L444 828L554 972L700 712L932 1088H268Z" fill="#D96E30"/>
  <path d="M196 1180L412 864L532 1032L726 650L1004 1180H196Z" fill="#7A4E2D"/>
  <path d="M120 1288L380 930L520 1120L742 612L1080 1288H120Z" fill="#20303C"/>
  <path d="M742 612L790 702H694L742 612Z" fill="#FFF9F1"/>
  <path d="M742 540L758 584L806 588L770 616L780 664L742 640L704 664L714 616L678 588L726 584L742 540Z" fill="#F0B44D"/>
  <rect x="154" y="1328" width="892" height="164" rx="24" fill="#EFE2C6"/>
  <text x="132" y="1580" fill="#20303C" font-family="Georgia, 'Times New Roman', serif" font-size="164" font-weight="700">Grit</text>
  <text x="136" y="1686" fill="#D96E30" font-family="Arial, Helvetica, sans-serif" font-size="48" letter-spacing="7">ANGELA DUCKWORTH</text>
</svg>
