<svg width="1200" height="1800" viewBox="0 0 1200 1800" fill="none" xmlns="http://www.w3.org/2000/svg">
  <rect width="1200" height="1800" fill="#121826"/>
  <rect x="0" y="0" width="1200" height="1800" fill="url(#bg)"/>
  <rect x="84" y="84" width="1032" height="1632" rx="48" fill="#0F172A" stroke="#334155" stroke-width="8"/>
  <rect x="84" y="84" width="1032" height="176" rx="48" fill="#1D4ED8"/>
  <text x="600" y="196" text-anchor="middle" fill="#E2E8F0" font-family="Georgia, serif" font-size="84" letter-spacing="10">ROBERT CIALDINI</text>

  <circle cx="600" cy="620" r="220" fill="url(#ring1)" opacity="0.95"/>
  <circle cx="600" cy="620" r="156" fill="#0F172A" stroke="#60A5FA" stroke-width="8"/>
  <circle cx="600" cy="620" r="84" fill="#93C5FD" opacity="0.95"/>
  <circle cx="600" cy="620" r="26" fill="#F8FAFC"/>
  <path d="M600 310C769 310 910 451 910 620" stroke="#93C5FD" stroke-width="18" stroke-linecap="round" opacity="0.8"/>
  <path d="M600 266C795 266 954 425 954 620" stroke="#60A5FA" stroke-width="14" stroke-linecap="round" opacity="0.55"/>
  <path d="M600 930C431 930 290 789 290 620" stroke="#93C5FD" stroke-width="18" stroke-linecap="round" opacity="0.8"/>
  <path d="M600 974C405 974 246 815 246 620" stroke="#60A5FA" stroke-width="14" stroke-linecap="round" opacity="0.55"/>

  <text x="600" y="1108" text-anchor="middle" fill="#F8FAFC" font-family="Georgia, serif" font-size="156" letter-spacing="8">INFLUENCE</text>
  <text x="600" y="1246" text-anchor="middle" fill="#93C5FD" font-family="Arial, sans-serif" font-size="44" letter-spacing="7">DECISION MAKING • SOCIAL PROOF • ETHICS</text>

  <rect x="182" y="1388" width="836" height="216" rx="28" fill="#172033" stroke="#334155" stroke-width="4"/>
  <text x="600" y="1478" text-anchor="middle" fill="#E2E8F0" font-family="Arial, sans-serif" font-size="42" letter-spacing="4">AUTOMATIC CHOICES</text>
  <text x="600" y="1544" text-anchor="middle" fill="#CBD5E1" font-family="Arial, sans-serif" font-size="34">Reciprocity, consistency, authority, scarcity,</text>
  <text x="600" y="1592" text-anchor="middle" fill="#CBD5E1" font-family="Arial, sans-serif" font-size="34">and the signals that shape modern judgment.</text>

  <defs>
    <linearGradient id="bg" x1="148" y1="104" x2="1020" y2="1700" gradientUnits="userSpaceOnUse">
      <stop stop-color="#0F172A"/>
      <stop offset="1" stop-color="#111827"/>
    </linearGradient>
    <radialGradient id="ring1" cx="0" cy="0" r="1" gradientUnits="userSpaceOnUse" gradientTransform="translate(600 620) rotate(90) scale(220)">
      <stop stop-color="#3B82F6"/>
      <stop offset="1" stop-color="#1D4ED8"/>
    </radialGradient>
  </defs>
</svg>
