<svg width="1200" height="1800" viewBox="0 0 1200 1800" fill="none" xmlns="http://www.w3.org/2000/svg">
  <rect width="1200" height="1800" fill="#EFE6D5"/>
  <rect x="0" y="0" width="1200" height="240" fill="#2D4662"/>
  <rect x="0" y="1470" width="1200" height="330" fill="#2D4662"/>
  <circle cx="600" cy="820" r="285" fill="#D39A45"/>
  <circle cx="600" cy="820" r="210" fill="#EFE6D5"/>
  <circle cx="600" cy="820" r="16" fill="#2D4662"/>
  <path d="M600 820L600 650" stroke="#2D4662" stroke-width="26" stroke-linecap="round"/>
  <path d="M600 820L720 890" stroke="#2D4662" stroke-width="26" stroke-linecap="round"/>
  <path d="M600 560C742 560 860 678 860 820C860 962 742 1080 600 1080C458 1080 340 962 340 820C340 678 458 560 600 560Z" stroke="#2D4662" stroke-width="20"/>
  <text x="600" y="148" text-anchor="middle" fill="#F7F2EA" font-family="Georgia, serif" font-size="60" font-weight="700">JAKE KNAPP   JOHN ZERATSKY</text>
  <text x="600" y="1328" text-anchor="middle" fill="#2D4662" font-family="Georgia, serif" font-size="126" font-weight="700">MAKE TIME</text>
  <text x="600" y="1596" text-anchor="middle" fill="#F7F2EA" font-family="Georgia, serif" font-size="42">Highlight   Laser   Energize   Reflect</text>
  <text x="600" y="1670" text-anchor="middle" fill="#F7F2EA" font-family="Georgia, serif" font-size="34">A modern learning edition for daily attention design</text>
</svg>
