<svg width="1200" height="1800" viewBox="0 0 1200 1800" fill="none" xmlns="http://www.w3.org/2000/svg">
  <rect width="1200" height="1800" fill="#EFE7DA"/>
  <rect width="1200" height="260" fill="#8A5A2A"/>
  <rect y="1460" width="1200" height="340" fill="#22313B"/>
  <rect x="120" y="340" width="960" height="980" rx="24" fill="#FBF6EE" stroke="#D1BEA7" stroke-width="10"/>
  <path d="M570 560H630V1060H570V560Z" fill="#22313B"/>
  <path d="M500 610C500 577 527 550 560 550H640C673 550 700 577 700 610V660H500V610Z" fill="#8A5A2A"/>
  <circle cx="600" cy="760" r="34" fill="#D88A40"/>
  <circle cx="600" cy="880" r="34" fill="#D88A40"/>
  <path d="M520 1080C548 1040 574 1020 600 1020C626 1020 652 1040 680 1080" stroke="#22313B" stroke-width="18" stroke-linecap="round"/>
  <text x="600" y="150" text-anchor="middle" fill="#FBF6EE" font-family="Georgia, serif" font-size="80" letter-spacing="3">ROBERT GREENE</text>
  <text x="600" y="1290" text-anchor="middle" fill="#22313B" font-family="Georgia, serif" font-size="152" font-weight="700">MASTERY</text>
  <text x="600" y="1568" text-anchor="middle" fill="#FBF6EE" font-family="Arial, sans-serif" font-size="32" letter-spacing="4">APPRENTICESHIP  PRACTICE  CREATIVITY  SKILL</text>
</svg>
