<svg width="1200" height="1800" viewBox="0 0 1200 1800" fill="none" xmlns="http://www.w3.org/2000/svg">
  <rect width="1200" height="1800" fill="#F6F3EA"/>
  <rect x="72" y="72" width="1056" height="1656" rx="32" fill="#FFFDF7" stroke="#213547" stroke-width="8"/>
  <rect x="132" y="132" width="936" height="360" rx="28" fill="#213547"/>
  <circle cx="600" cy="312" r="118" fill="#88B04B"/>
  <path d="M600 218C644 254 686 300 686 360C686 420 648 468 600 506C552 468 514 420 514 360C514 300 556 254 600 218Z" fill="#FFFDF7"/>
  <path d="M600 260C626 286 650 319 650 358C650 397 626 430 600 456C574 430 550 397 550 358C550 319 574 286 600 260Z" fill="#88B04B"/>
  <rect x="230" y="610" width="740" height="620" rx="36" fill="#E7F1D8"/>
  <path d="M380 1110C392 948 476 820 600 728C724 820 808 948 820 1110" stroke="#213547" stroke-width="20" stroke-linecap="round"/>
  <path d="M600 728V1110" stroke="#213547" stroke-width="20" stroke-linecap="round"/>
  <path d="M600 840C520 826 448 770 404 684" stroke="#88B04B" stroke-width="24" stroke-linecap="round"/>
  <path d="M600 900C676 888 760 834 812 744" stroke="#88B04B" stroke-width="24" stroke-linecap="round"/>
  <path d="M600 972C540 962 478 930 430 876" stroke="#88B04B" stroke-width="24" stroke-linecap="round"/>
  <path d="M600 1048C666 1038 738 996 792 930" stroke="#88B04B" stroke-width="24" stroke-linecap="round"/>
  <circle cx="600" cy="728" r="38" fill="#F2A654"/>
  <text x="132" y="1415" fill="#213547" font-family="Georgia, 'Times New Roman', serif" font-size="156" font-weight="700">Mindset</text>
  <text x="136" y="1525" fill="#88B04B" font-family="Arial, Helvetica, sans-serif" font-size="50" letter-spacing="8">CAROL S. DWECK</text>
  <text x="136" y="1616" fill="#5F6C5B" font-family="Arial, Helvetica, sans-serif" font-size="34" letter-spacing="4">Growth  Learning  Resilience</text>
</svg>
