<svg width="1200" height="1800" viewBox="0 0 1200 1800" fill="none" xmlns="http://www.w3.org/2000/svg">
  <rect width="1200" height="1800" fill="#111111"/>
  <rect x="84" y="84" width="1032" height="1632" rx="48" fill="#171717" stroke="#404040" stroke-width="8"/>
  <rect x="84" y="84" width="1032" height="214" rx="48" fill="#DC2626"/>
  <text x="600" y="196" text-anchor="middle" fill="#FEF2F2" font-family="Georgia, serif" font-size="82" letter-spacing="8">CHRIS VOSS</text>

  <rect x="256" y="408" width="688" height="430" rx="42" fill="#0F172A" stroke="#64748B" stroke-width="6"/>
  <path d="M360 598H840" stroke="#F8FAFC" stroke-width="18" stroke-linecap="round"/>
  <path d="M360 674H696" stroke="#CBD5E1" stroke-width="18" stroke-linecap="round"/>
  <path d="M360 750H760" stroke="#CBD5E1" stroke-width="18" stroke-linecap="round"/>
  <circle cx="864" cy="598" r="34" fill="#EF4444"/>
  <circle cx="720" cy="674" r="30" fill="#38BDF8"/>
  <circle cx="784" cy="750" r="26" fill="#E2E8F0"/>
  <path d="M274 964C376 900 482 868 600 868C718 868 824 900 926 964" stroke="#F87171" stroke-width="14" stroke-linecap="round" opacity="0.85"/>

  <text x="600" y="1120" text-anchor="middle" fill="#F8FAFC" font-family="Georgia, serif" font-size="102" letter-spacing="6">NEVER SPLIT</text>
  <text x="600" y="1230" text-anchor="middle" fill="#F8FAFC" font-family="Georgia, serif" font-size="118" letter-spacing="6">THE DIFFERENCE</text>
  <text x="600" y="1334" text-anchor="middle" fill="#FCA5A5" font-family="Arial, sans-serif" font-size="38" letter-spacing="4">NEGOTIATION • TACTICAL EMPATHY • LEVERAGE</text>

  <rect x="176" y="1422" width="848" height="204" rx="26" fill="#1F1F1F" stroke="#404040" stroke-width="4"/>
  <text x="600" y="1498" text-anchor="middle" fill="#E5E7EB" font-family="Arial, sans-serif" font-size="40" letter-spacing="4">READ THE PERSON BEFORE THE TERMS</text>
  <text x="600" y="1562" text-anchor="middle" fill="#D1D5DB" font-family="Arial, sans-serif" font-size="34">A modern learning edition on hard conversations,</text>
  <text x="600" y="1608" text-anchor="middle" fill="#D1D5DB" font-family="Arial, sans-serif" font-size="34">commitment, calibrated questions, and durable deals.</text>
</svg>
