<svg width="1200" height="1800" viewBox="0 0 1200 1800" fill="none" xmlns="http://www.w3.org/2000/svg">
  <rect width="1200" height="1800" fill="#F4EEE6"/>
  <rect x="72" y="72" width="1056" height="1656" rx="32" fill="#FFFDF8" stroke="#1E3240" stroke-width="8"/>
  <rect x="132" y="132" width="936" height="360" rx="28" fill="#1E3240"/>
  <circle cx="456" cy="314" r="118" fill="#D9A24B"/>
  <circle cx="744" cy="314" r="118" fill="#C7613A"/>
  <rect x="294" y="706" width="612" height="420" rx="30" fill="#E9DCC4"/>
  <path d="M392 834H808" stroke="#1E3240" stroke-width="24" stroke-linecap="round"/>
  <path d="M392 952H808" stroke="#1E3240" stroke-width="24" stroke-linecap="round"/>
  <path d="M392 1070H808" stroke="#1E3240" stroke-width="24" stroke-linecap="round"/>
  <circle cx="332" cy="834" r="30" fill="#D9A24B"/>
  <circle cx="332" cy="952" r="30" fill="#C7613A"/>
  <circle cx="332" cy="1070" r="30" fill="#D9A24B"/>
  <path d="M522 580H678V674H522V580Z" fill="#FFFDF8"/>
  <path d="M558 580V528C558 504 576 486 600 486C624 486 642 504 642 528V580" stroke="#1E3240" stroke-width="18" stroke-linecap="round"/>
  <text x="132" y="1456" fill="#1E3240" font-family="Georgia, 'Times New Roman', serif" font-size="110" font-weight="700">Rich Dad</text>
  <text x="132" y="1554" fill="#1E3240" font-family="Georgia, 'Times New Roman', serif" font-size="110" font-weight="700">Poor Dad</text>
  <text x="136" y="1652" fill="#C7613A" font-family="Arial, Helvetica, sans-serif" font-size="40" letter-spacing="4">ROBERT T. KIYOSAKI</text>
</svg>
