<svg width="1200" height="1800" viewBox="0 0 1200 1800" fill="none" xmlns="http://www.w3.org/2000/svg">
  <rect width="1200" height="1800" fill="#F4EFE6"/>
  <rect x="72" y="72" width="1056" height="1656" rx="32" fill="#FFFDF8" stroke="#203441" stroke-width="8"/>
  <rect x="132" y="132" width="936" height="360" rx="28" fill="#203441"/>
  <circle cx="600" cy="320" r="146" fill="#E3A94D"/>
  <circle cx="600" cy="320" r="98" fill="#FFFDF8"/>
  <circle cx="600" cy="320" r="50" fill="#D36539"/>
  <path d="M600 590V1120" stroke="#203441" stroke-width="26" stroke-linecap="round"/>
  <path d="M600 590L716 730" stroke="#203441" stroke-width="26" stroke-linecap="round"/>
  <path d="M600 590L484 730" stroke="#203441" stroke-width="26" stroke-linecap="round"/>
  <path d="M600 770L778 930" stroke="#D36539" stroke-width="24" stroke-linecap="round"/>
  <path d="M600 770L422 930" stroke="#D36539" stroke-width="24" stroke-linecap="round"/>
  <path d="M600 944L840 1118" stroke="#E3A94D" stroke-width="24" stroke-linecap="round"/>
  <path d="M600 944L360 1118" stroke="#E3A94D" stroke-width="24" stroke-linecap="round"/>
  <circle cx="600" cy="590" r="28" fill="#203441"/>
  <circle cx="716" cy="730" r="24" fill="#203441"/>
  <circle cx="484" cy="730" r="24" fill="#203441"/>
  <circle cx="778" cy="930" r="24" fill="#D36539"/>
  <circle cx="422" cy="930" r="24" fill="#D36539"/>
  <circle cx="840" cy="1118" r="24" fill="#E3A94D"/>
  <circle cx="360" cy="1118" r="24" fill="#E3A94D"/>
  <text x="132" y="1470" fill="#203441" font-family="Georgia, 'Times New Roman', serif" font-size="130" font-weight="700">Start With Why</text>
  <text x="136" y="1580" fill="#D36539" font-family="Arial, Helvetica, sans-serif" font-size="46" letter-spacing="6">SIMON SINEK</text>
</svg>
