<svg width="1200" height="1800" viewBox="0 0 1200 1800" fill="none" xmlns="http://www.w3.org/2000/svg">
  <rect width="1200" height="1800" fill="#F5F0E6"/>
  <rect x="72" y="72" width="1056" height="1656" rx="32" fill="#FFFDF8" stroke="#1F3440" stroke-width="8"/>
  <rect x="132" y="132" width="936" height="360" rx="28" fill="#1F3440"/>
  <circle cx="600" cy="312" r="118" fill="#D8A24A"/>
  <path d="M600 228C650 286 706 328 762 350C704 364 654 408 620 474C598 416 552 370 490 352C544 332 584 292 600 228Z" fill="#FFFDF8"/>
  <rect x="204" y="628" width="792" height="520" rx="40" fill="#E9D9BE"/>
  <path d="M338 1036C420 884 504 808 600 808C696 808 780 884 862 1036" stroke="#1F3440" stroke-width="22" stroke-linecap="round"/>
  <path d="M600 808V1120" stroke="#1F3440" stroke-width="22" stroke-linecap="round"/>
  <path d="M462 966C508 932 554 906 600 892" stroke="#C06B3E" stroke-width="24" stroke-linecap="round"/>
  <path d="M738 966C692 932 646 906 600 892" stroke="#C06B3E" stroke-width="24" stroke-linecap="round"/>
  <path d="M412 1114C478 1068 542 1042 600 1032" stroke="#C06B3E" stroke-width="24" stroke-linecap="round"/>
  <path d="M788 1114C722 1068 658 1042 600 1032" stroke="#C06B3E" stroke-width="24" stroke-linecap="round"/>
  <circle cx="600" cy="808" r="34" fill="#FFFDF8"/>
  <text x="132" y="1398" fill="#1F3440" font-family="Georgia, 'Times New Roman', serif" font-size="94" font-weight="700">The Courage</text>
  <text x="132" y="1498" fill="#1F3440" font-family="Georgia, 'Times New Roman', serif" font-size="94" font-weight="700">to Be Disliked</text>
  <text x="136" y="1606" fill="#C06B3E" font-family="Arial, Helvetica, sans-serif" font-size="36" letter-spacing="4">ICHIRO KISHIMI  FUMITAKE KOGA</text>
</svg>
