<svg width="1200" height="1800" viewBox="0 0 1200 1800" fill="none" xmlns="http://www.w3.org/2000/svg">
  <rect width="1200" height="1800" fill="#F1E8DC"/>
  <rect width="1200" height="260" fill="#C8682E"/>
  <rect y="1460" width="1200" height="340" fill="#283038"/>
  <rect x="120" y="340" width="960" height="980" rx="24" fill="#FBF6EE" stroke="#D4C1A8" stroke-width="10"/>
  <path d="M430 760C430 692 485 637 553 637H593V825H553C485 825 430 770 430 702V760Z" fill="#C8682E"/>
  <path d="M770 760C770 692 715 637 647 637H607V825H647C715 825 770 770 770 702V760Z" fill="#C8682E"/>
  <rect x="545" y="790" width="110" height="90" rx="18" fill="#283038"/>
  <text x="600" y="150" text-anchor="middle" fill="#FBF6EE" font-family="Georgia, serif" font-size="72" letter-spacing="3">JACK SCHAFER  MARVIN KARLINS</text>
  <text x="600" y="1230" text-anchor="middle" fill="#283038" font-family="Georgia, serif" font-size="96">THE LIKE</text>
  <text x="600" y="1360" text-anchor="middle" fill="#283038" font-family="Georgia, serif" font-size="132" font-weight="700">SWITCH</text>
  <text x="600" y="1568" text-anchor="middle" fill="#FBF6EE" font-family="Arial, sans-serif" font-size="36" letter-spacing="4">RAPPORT  TRUST  BODY LANGUAGE  CONNECTION</text>
</svg>
