<svg width="1200" height="1800" viewBox="0 0 1200 1800" fill="none" xmlns="http://www.w3.org/2000/svg">
  <rect width="1200" height="1800" fill="#F4EEE7"/>
  <rect x="72" y="72" width="1056" height="1656" rx="32" fill="#FFFDF8" stroke="#1D2E3A" stroke-width="8"/>
  <rect x="132" y="132" width="936" height="360" rx="28" fill="#1D2E3A"/>
  <path d="M258 1108C338 978 480 910 662 910H836C902 910 952 946 988 1018L1040 1124H258V1108Z" fill="#D95E33"/>
  <path d="M332 986C400 900 508 850 646 850H786C844 850 892 880 926 940L962 1002H332V986Z" fill="#E2A24B"/>
  <path d="M380 930L470 806H736L846 930H380Z" fill="#FFFDF8"/>
  <circle cx="412" cy="1124" r="82" fill="#1D2E3A"/>
  <circle cx="412" cy="1124" r="38" fill="#FFFDF8"/>
  <circle cx="856" cy="1124" r="82" fill="#1D2E3A"/>
  <circle cx="856" cy="1124" r="38" fill="#FFFDF8"/>
  <path d="M216 1210H1048" stroke="#1D2E3A" stroke-width="18" stroke-linecap="round"/>
  <path d="M258 744L408 640H650L762 566L912 640" stroke="#E2A24B" stroke-width="20" stroke-linecap="round"/>
  <circle cx="762" cy="566" r="34" fill="#D95E33"/>
  <text x="132" y="1458" fill="#1D2E3A" font-family="Georgia, 'Times New Roman', serif" font-size="92" font-weight="700">The Millionaire</text>
  <text x="132" y="1556" fill="#1D2E3A" font-family="Georgia, 'Times New Roman', serif" font-size="92" font-weight="700">Fastlane</text>
  <text x="136" y="1654" fill="#D95E33" font-family="Arial, Helvetica, sans-serif" font-size="44" letter-spacing="4">MJ DEMARCO</text>
</svg>
