<svg xmlns="http://www.w3.org/2000/svg" viewBox="0 0 900 1400" role="img" aria-labelledby="title desc">
  <title id="title">The Prince book cover</title>
  <desc id="desc">A red and gold cover with a jeweled crown on velvet inspired by a classic edition of The Prince.</desc>
  <defs>
    <linearGradient id="bg" x1="0" x2="0" y1="0" y2="1">
      <stop offset="0%" stop-color="#7c6542"/>
      <stop offset="100%" stop-color="#8a7352"/>
    </linearGradient>
    <linearGradient id="gold" x1="0" x2="1" y1="0" y2="1">
      <stop offset="0%" stop-color="#fff17a"/>
      <stop offset="50%" stop-color="#f3c219"/>
      <stop offset="100%" stop-color="#ba7d08"/>
    </linearGradient>
    <linearGradient id="velvet" x1="0" x2="0" y1="0" y2="1">
      <stop offset="0%" stop-color="#d01f1c"/>
      <stop offset="100%" stop-color="#7f0d0d"/>
    </linearGradient>
  </defs>
  <rect width="900" height="1400" rx="38" fill="url(#bg)"/>
  <rect x="0" y="920" width="900" height="480" fill="#eb0d17"/>
  <rect x="330" y="845" width="240" height="120" fill="#fbfaf2" stroke="#111" stroke-width="8"/>
  <text x="450" y="895" text-anchor="middle" fill="#111" font-family="Georgia, 'Times New Roman', serif" font-size="34">ENRICHED</text>
  <text x="450" y="937" text-anchor="middle" fill="#111" font-family="Georgia, 'Times New Roman', serif" font-size="34">CLASSIC</text>
  <g transform="translate(450 525)">
    <path d="M-248 180c45-176 126-286 248-286 122 0 204 110 248 286" fill="url(#velvet)"/>
    <ellipse cx="0" cy="172" rx="270" ry="46" fill="#8c1111" opacity="0.36"/>
    <path d="M-250 175c35 13 72 25 111 33 94 20 184 20 278 0 39-8 76-20 111-33-19 43-58 80-111 95-94 28-184 28-278 0-53-15-92-52-111-95z" fill="#b71212" opacity="0.82"/>
  </g>
  <g transform="translate(450 480)">
    <path d="M-230 160l16-150 70 104 52-148 58 138 34-166 36 164 58-136 52 146 68-104 18 152c-22 20-60 38-112 52-70 19-132 28-198 28s-128-9-198-28c-52-14-90-32-112-52z" fill="url(#gold)" stroke="#6f4200" stroke-width="8"/>
    <path d="M-224 160c54 20 112 34 174 41 31 4 71 6 120 6s89-2 120-6c62-7 120-21 174-41v68c-44 18-96 31-156 39-44 6-90 9-138 9s-94-3-138-9c-60-8-112-21-156-39z" fill="url(#gold)" stroke="#6f4200" stroke-width="8"/>
    <g fill="#fff7df" stroke="#8b5b09" stroke-width="6">
      <circle cx="-226" cy="4" r="12"/>
      <circle cx="-122" cy="-26" r="12"/>
      <circle cx="0" cy="-62" r="13"/>
      <circle cx="122" cy="-24" r="12"/>
      <circle cx="226" cy="4" r="12"/>
    </g>
    <g fill="#d31d2a" stroke="#741018" stroke-width="6">
      <ellipse cx="-170" cy="72" rx="16" ry="22"/>
      <ellipse cx="-72" cy="44" rx="18" ry="24"/>
      <ellipse cx="86" cy="36" rx="18" ry="24"/>
      <ellipse cx="176" cy="68" rx="16" ry="22"/>
      <rect x="-24" y="116" width="48" height="34" rx="6"/>
      <polygon points="-96,178 -72,154 -48,178 -72,202"/>
      <polygon points="48,178 72,154 96,178 72,202"/>
    </g>
    <g fill="#f4f5f7" stroke="#9e9ca0" stroke-width="6">
      <circle cx="-198" cy="148" r="22"/>
      <circle cx="198" cy="148" r="22"/>
      <circle cx="0" cy="170" r="34"/>
      <circle cx="-34" cy="56" r="12"/>
      <circle cx="34" cy="56" r="12"/>
    </g>
    <g fill="#12438d" stroke="#06234d" stroke-width="6">
      <circle cx="0" cy="44" r="16"/>
      <rect x="-148" y="156" width="24" height="24" rx="4"/>
      <rect x="124" y="156" width="24" height="24" rx="4"/>
    </g>
  </g>
  <text x="450" y="1095" text-anchor="middle" fill="#fff5ef" font-family="Georgia, 'Times New Roman', serif" font-size="88" letter-spacing="3">THE PRINCE</text>
  <line x1="240" x2="660" y1="1150" y2="1150" stroke="#fff5ef" stroke-width="5" opacity="0.9"/>
  <text x="450" y="1265" text-anchor="middle" fill="#fff5ef" font-family="Georgia, 'Times New Roman', serif" font-size="76" letter-spacing="2">NICCOLÒ MACHIAVELLI</text>
  <text x="450" y="1360" text-anchor="middle" fill="#fff5ef" font-family="Arial, sans-serif" font-size="38" font-weight="700">Modern reading of power, legitimacy, and leadership tradeoffs</text>
</svg>
