<svg width="1200" height="1800" viewBox="0 0 1200 1800" fill="none" xmlns="http://www.w3.org/2000/svg">
  <rect width="1200" height="1800" fill="#EFE8D8"/>
  <rect x="0" y="0" width="1200" height="240" fill="#2B4A3E"/>
  <rect x="0" y="1470" width="1200" height="330" fill="#2B4A3E"/>
  <circle cx="600" cy="790" r="255" fill="#C67A38"/>
  <circle cx="600" cy="790" r="175" fill="#EFE8D8"/>
  <circle cx="600" cy="790" r="75" fill="#2B4A3E"/>
  <path d="M600 485C765 485 905 625 905 790" stroke="#2B4A3E" stroke-width="44" stroke-linecap="round"/>
  <path d="M902 790L846 724" stroke="#2B4A3E" stroke-width="32" stroke-linecap="round"/>
  <path d="M902 790L824 802" stroke="#2B4A3E" stroke-width="32" stroke-linecap="round"/>
  <path d="M600 1095C435 1095 295 955 295 790" stroke="#2B4A3E" stroke-width="44" stroke-linecap="round"/>
  <path d="M298 790L354 856" stroke="#2B4A3E" stroke-width="32" stroke-linecap="round"/>
  <path d="M298 790L376 778" stroke="#2B4A3E" stroke-width="32" stroke-linecap="round"/>
  <text x="600" y="150" text-anchor="middle" fill="#F7F1E4" font-family="Georgia, serif" font-size="66" font-weight="700">CHARLES DUHIGG</text>
  <text x="600" y="1325" text-anchor="middle" fill="#2B4A3E" font-family="Georgia, serif" font-size="112" font-weight="700">THE POWER</text>
  <text x="600" y="1445" text-anchor="middle" fill="#2B4A3E" font-family="Georgia, serif" font-size="112" font-weight="700">OF HABIT</text>
  <text x="600" y="1595" text-anchor="middle" fill="#F7F1E4" font-family="Georgia, serif" font-size="42">Cue   Routine   Reward</text>
  <text x="600" y="1670" text-anchor="middle" fill="#F7F1E4" font-family="Georgia, serif" font-size="34">A modern learning edition for behavior change and systems</text>
</svg>
