<svg width="1200" height="1800" viewBox="0 0 1200 1800" fill="none" xmlns="http://www.w3.org/2000/svg">
  <rect width="1200" height="1800" fill="#EEE5D7"/>
  <rect x="0" y="0" width="1200" height="240" fill="#244059"/>
  <rect x="0" y="1470" width="1200" height="330" fill="#244059"/>
  <circle cx="600" cy="810" r="280" fill="#D0A348"/>
  <circle cx="600" cy="810" r="190" fill="#EEE5D7"/>
  <path d="M600 640V980" stroke="#244059" stroke-width="34" stroke-linecap="round"/>
  <path d="M700 695C670 655 625 640 580 640C515 640 470 675 470 730C470 790 522 815 600 832C678 849 730 874 730 938C730 997 680 1035 602 1035C545 1035 492 1012 455 970" stroke="#244059" stroke-width="28" stroke-linecap="round" stroke-linejoin="round"/>
  <text x="600" y="150" text-anchor="middle" fill="#F8F3EB" font-family="Georgia, serif" font-size="64" font-weight="700">MORGAN HOUSEL</text>
  <text x="600" y="1325" text-anchor="middle" fill="#244059" font-family="Georgia, serif" font-size="100" font-weight="700">THE PSYCHOLOGY</text>
  <text x="600" y="1445" text-anchor="middle" fill="#244059" font-family="Georgia, serif" font-size="100" font-weight="700">OF MONEY</text>
  <text x="600" y="1595" text-anchor="middle" fill="#F8F3EB" font-family="Georgia, serif" font-size="42">Behavior   Risk   Wealth</text>
  <text x="600" y="1670" text-anchor="middle" fill="#F8F3EB" font-family="Georgia, serif" font-size="34">A modern learning edition for finance and decision making</text>
</svg>
