<svg width="1200" height="1800" viewBox="0 0 1200 1800" fill="none" xmlns="http://www.w3.org/2000/svg">
  <rect width="1200" height="1800" fill="#F3EFE6"/>
  <rect x="72" y="72" width="1056" height="1656" rx="32" fill="#FFFDF8" stroke="#1F3440" stroke-width="8"/>
  <rect x="132" y="132" width="936" height="360" rx="28" fill="#1F3440"/>
  <circle cx="600" cy="316" r="148" fill="#D9A24C"/>
  <circle cx="600" cy="316" r="108" fill="#FFFDF8"/>
  <path d="M600 236L618 290L676 290L628 326L646 382L600 348L554 382L572 326L524 290L582 290L600 236Z" fill="#C8623A"/>
  <path d="M332 722H868" stroke="#1F3440" stroke-width="24" stroke-linecap="round"/>
  <path d="M332 854H868" stroke="#1F3440" stroke-width="24" stroke-linecap="round"/>
  <path d="M332 986H868" stroke="#1F3440" stroke-width="24" stroke-linecap="round"/>
  <path d="M332 1118H868" stroke="#1F3440" stroke-width="24" stroke-linecap="round"/>
  <circle cx="276" cy="722" r="34" fill="#D9A24C"/>
  <circle cx="924" cy="722" r="34" fill="#C8623A"/>
  <circle cx="276" cy="854" r="34" fill="#D9A24C"/>
  <circle cx="924" cy="854" r="34" fill="#C8623A"/>
  <circle cx="276" cy="986" r="34" fill="#D9A24C"/>
  <circle cx="924" cy="986" r="34" fill="#C8623A"/>
  <circle cx="276" cy="1118" r="34" fill="#D9A24C"/>
  <circle cx="924" cy="1118" r="34" fill="#C8623A"/>
  <text x="132" y="1450" fill="#1F3440" font-family="Georgia, 'Times New Roman', serif" font-size="86" font-weight="700">The 7 Habits of Highly</text>
  <text x="132" y="1548" fill="#1F3440" font-family="Georgia, 'Times New Roman', serif" font-size="86" font-weight="700">Effective People</text>
  <text x="136" y="1648" fill="#C8623A" font-family="Arial, Helvetica, sans-serif" font-size="40" letter-spacing="4">STEPHEN R. COVEY</text>
</svg>
