<svg width="1200" height="1800" viewBox="0 0 1200 1800" fill="none" xmlns="http://www.w3.org/2000/svg">
  <rect width="1200" height="1800" fill="#F4E9D5"/>
  <rect x="0" y="0" width="1200" height="250" fill="#1C2E45"/>
  <rect x="0" y="1460" width="1200" height="340" fill="#1C2E45"/>
  <circle cx="600" cy="810" r="280" fill="#E7C16A"/>
  <circle cx="600" cy="810" r="205" fill="#F4E9D5" opacity="0.75"/>
  <circle cx="600" cy="810" r="135" fill="#1C2E45" opacity="0.9"/>
  <path d="M600 450L640 650L840 610L690 760L860 900L660 920L700 1120L600 980L500 1120L540 920L340 900L510 760L360 610L560 650L600 450Z" fill="#D4833A" opacity="0.95"/>
  <text x="600" y="155" text-anchor="middle" fill="#F4E9D5" font-family="Georgia, serif" font-size="72" font-weight="700">OLIVIA FOX CABANE</text>
  <text x="600" y="1300" text-anchor="middle" fill="#1C2E45" font-family="Georgia, serif" font-size="112" font-weight="700">THE CHARISMA</text>
  <text x="600" y="1418" text-anchor="middle" fill="#1C2E45" font-family="Georgia, serif" font-size="112" font-weight="700">MYTH</text>
  <text x="600" y="1590" text-anchor="middle" fill="#F4E9D5" font-family="Georgia, serif" font-size="44">Presence   Power   Warmth</text>
  <text x="600" y="1665" text-anchor="middle" fill="#F4E9D5" font-family="Georgia, serif" font-size="34">A modern learning edition for communication and leadership</text>
</svg>
