<svg width="1200" height="1800" viewBox="0 0 1200 1800" fill="none" xmlns="http://www.w3.org/2000/svg">
  <rect width="1200" height="1800" fill="#F3E8D2"/>
  <rect x="0" y="0" width="1200" height="300" fill="#D7742E"/>
  <rect x="0" y="1440" width="1200" height="360" fill="#1D3557"/>
  <rect x="96" y="372" width="1008" height="936" rx="24" fill="#FAF6EE" stroke="#C9B79C" stroke-width="10"/>
  <circle cx="600" cy="840" r="210" fill="#E8D9BF" stroke="#1D3557" stroke-width="18"/>
  <path d="M470 730C470 650 530 592 610 592C690 592 748 650 748 730C748 780 728 816 704 846C678 878 650 910 640 960H580C570 908 540 876 514 844C490 814 470 778 470 730Z" fill="#1D3557"/>
  <path d="M540 1030H668" stroke="#1D3557" stroke-width="22" stroke-linecap="round"/>
  <path d="M548 1082H660" stroke="#1D3557" stroke-width="18" stroke-linecap="round"/>
  <path d="M420 1118C492 1078 560 1060 600 1060C640 1060 708 1078 780 1118" stroke="#D7742E" stroke-width="20" stroke-linecap="round"/>
  <path d="M362 868H432" stroke="#D7742E" stroke-width="18" stroke-linecap="round"/>
  <path d="M768 868H838" stroke="#D7742E" stroke-width="18" stroke-linecap="round"/>
  <path d="M402 642L452 692" stroke="#D7742E" stroke-width="18" stroke-linecap="round"/>
  <path d="M798 642L748 692" stroke="#D7742E" stroke-width="18" stroke-linecap="round"/>
  <path d="M600 552V482" stroke="#D7742E" stroke-width="18" stroke-linecap="round"/>
  <text x="600" y="160" text-anchor="middle" fill="#FAF6EE" font-family="Georgia, serif" font-size="90" letter-spacing="6">DANIEL KAHNEMAN</text>
  <text x="600" y="1270" text-anchor="middle" fill="#1D3557" font-family="Georgia, serif" font-size="104" font-weight="700">THINKING</text>
  <text x="600" y="1375" text-anchor="middle" fill="#1D3557" font-family="Georgia, serif" font-size="104" font-weight="700">FAST AND SLOW</text>
  <text x="600" y="1580" text-anchor="middle" fill="#FAF6EE" font-family="Arial, sans-serif" font-size="42" letter-spacing="4">JUDGMENT  BIAS  RISK  DECISION MAKING</text>
</svg>
