<svg width="1200" height="1800" viewBox="0 0 1200 1800" fill="none" xmlns="http://www.w3.org/2000/svg">
  <rect width="1200" height="1800" fill="#F2EAD8"/>
  <rect x="0" y="0" width="1200" height="240" fill="#3F6B4B"/>
  <rect x="0" y="1470" width="1200" height="330" fill="#3F6B4B"/>
  <circle cx="600" cy="820" r="280" fill="#D79B42"/>
  <path d="M600 1035C600 880 642 735 730 620C650 640 585 685 548 760C520 706 467 661 390 636C470 736 512 884 512 1035H600Z" fill="#3F6B4B"/>
  <path d="M600 1035C600 880 645 760 730 690" stroke="#24412D" stroke-width="14" stroke-linecap="round"/>
  <path d="M512 1035C512 900 470 790 390 720" stroke="#24412D" stroke-width="14" stroke-linecap="round"/>
  <path d="M548 760C560 780 574 810 580 840" stroke="#24412D" stroke-width="10" stroke-linecap="round"/>
  <text x="600" y="150" text-anchor="middle" fill="#F7F3EA" font-family="Georgia, serif" font-size="70" font-weight="700">BJ FOGG</text>
  <text x="600" y="1325" text-anchor="middle" fill="#3F6B4B" font-family="Georgia, serif" font-size="120" font-weight="700">TINY</text>
  <text x="600" y="1450" text-anchor="middle" fill="#3F6B4B" font-family="Georgia, serif" font-size="120" font-weight="700">HABITS</text>
  <text x="600" y="1595" text-anchor="middle" fill="#F7F3EA" font-family="Georgia, serif" font-size="42">Small actions   reliable change</text>
  <text x="600" y="1670" text-anchor="middle" fill="#F7F3EA" font-family="Georgia, serif" font-size="34">A modern learning edition for behavior design and consistency</text>
</svg>
