<svg width="1200" height="1800" viewBox="0 0 1200 1800" fill="none" xmlns="http://www.w3.org/2000/svg">
  <rect width="1200" height="1800" fill="#EEE4D4"/>
  <rect x="0" y="0" width="1200" height="240" fill="#243746"/>
  <rect x="0" y="1470" width="1200" height="330" fill="#243746"/>
  <rect x="120" y="360" width="960" height="900" rx="36" fill="#D9C5A1" stroke="#243746" stroke-width="14"/>
  <ellipse cx="600" cy="810" rx="230" ry="150" fill="#243746"/>
  <ellipse cx="600" cy="810" rx="145" ry="92" fill="#F4F0E6"/>
  <circle cx="600" cy="810" r="56" fill="#243746"/>
  <path d="M250 810C340 705 455 650 600 650C745 650 860 705 950 810" stroke="#8C6B3F" stroke-width="18" stroke-linecap="round"/>
  <path d="M250 810C340 915 455 970 600 970C745 970 860 915 950 810" stroke="#8C6B3F" stroke-width="18" stroke-linecap="round"/>
  <text x="600" y="150" text-anchor="middle" fill="#F4F0E6" font-family="Georgia, serif" font-size="64" font-weight="700">JOE NAVARRO</text>
  <text x="600" y="1325" text-anchor="middle" fill="#243746" font-family="Georgia, serif" font-size="104" font-weight="700">WHAT EVERY</text>
  <text x="600" y="1440" text-anchor="middle" fill="#243746" font-family="Georgia, serif" font-size="104" font-weight="700">BODY IS SAYING</text>
  <text x="600" y="1598" text-anchor="middle" fill="#F4F0E6" font-family="Georgia, serif" font-size="42">Nonverbal cues   baseline   context</text>
  <text x="600" y="1670" text-anchor="middle" fill="#F4F0E6" font-family="Georgia, serif" font-size="34">A modern learning edition for communication and observation</text>
</svg>
